# xmcd
#
# Track frame offsets: 
#        150
#        11126
#        24825
#        39255
#        50807
#        68235
#        83016
#        95160
#        114525
#        131484
#        147795
#
# Disc length: 2282 seconds
#
# Revision: 0
# Processed by: cddbd v1.5.1PL0 Copyright (c) Steve Scherf et al.
# Submitted via: ExactAudioCopy v0.95a3
#
DISCID=8f08e80b
DTITLE=Philippe Solal - le blues de buenos aires
DYEAR=2004
DGENRE=Blues
TTITLE0=viejo ciego
TTITLE1=naranjo en flor
TTITLE2=che bandoneon
TTITLE3=milonga sentimental
TTITLE4=en esta tarde gris
TTITLE5=la ultima copa
TTITLE6=negra maria
TTITLE7=como dos extranos
TTITLE8=cualquiera de estas noches
TTITLE9=trenzas
TTITLE10=freres a demi mots
EXTD=
EXTT0=
EXTT1=
EXTT2=
EXTT3=
EXTT4=
EXTT5=
EXTT6=
EXTT7=
EXTT8=
EXTT9=
EXTT10=
PLAYORDER=
